<svg version="1.1" viewBox="0 0 5.6444 5.6444" xmlns="http://www.w3.org/2000/svg">
 <path d="m2.8222 0.56444c-0.10595 0-0.20385 0.057852-0.25495 0.15067-0.041483 0.075344-0.046343 0.16425-0.016646 0.243-0.18307 0.18849-0.35169 0.37952-0.41757 0.58915-0.035091 0.11166-0.038482 0.23081 0.00626 0.34643 0.026594 0.068716 0.0712 0.13506 0.13075 0.19975h-0.24912c-0.077248 0-0.15139 0.03074-0.20601 0.085363-0.054632 0.054623-0.085363 0.12876-0.085363 0.20601v0.14569c0 0.077249 0.030732 0.15139 0.085363 0.20601 0.054623 0.054623 0.12876 0.085363 0.20601 0.085363h0.21625c-0.023652 0.94077-0.49312 1.3317-0.81408 1.4943-0.12443 0.061192-0.20345 0.18814-0.20345 0.3268v0.14569c0 0.077249 0.030732 0.15139 0.085363 0.20601 0.054623 0.054623 0.12876 0.085363 0.20601 0.085363h2.6223c0.077248 0 0.15139-0.03074 0.20601-0.085363 0.054632-0.054623 0.085363-0.12876 0.085363-0.20601v-0.14569c0-0.13866-0.07902-0.26561-0.20345-0.3268-0.32096-0.16257-0.79042-0.55351-0.81408-1.4943h0.21625c0.077248 0 0.15139-0.03074 0.20601-0.085363 0.054632-0.054623 0.085363-0.12876 0.085363-0.20601v-0.14569c0-0.077249-0.030732-0.15139-0.085363-0.20601-0.054623-0.054623-0.12876-0.085363-0.20601-0.085363h-0.24912c0.059548-0.064687 0.10415-0.13103 0.13075-0.19975 0.044745-0.11562 0.041354-0.23477 0.006257-0.34643-0.065879-0.20964-0.23449-0.40065-0.41757-0.58915 0.0297-0.078749 0.02484-0.16766-0.016643-0.243-0.051102-0.092814-0.149-0.15067-0.25495-0.15067zm0 0.14569c0.053102 0 0.10172 0.028745 0.12733 0.075262 0.024767 0.044985 0.023342 0.09902-0.00242 0.14313-0.02123 0.029038-0.018088 0.069225 0.0074 0.094611 0.19366 0.19735 0.36299 0.39325 0.41785 0.56781 0.027427 0.087276 0.029051 0.16697-0.00313 0.25011-0.032178 0.083143-0.10115 0.17228-0.22621 0.26591-0.055904 0.041916-0.02648 0.13087 0.043393 0.13117l0.43706 9.967e-4c0.038666 4e-7 0.075664 0.015339 0.103 0.042682 0.027341 0.027341 0.042682 0.064338 0.042682 0.103v0.14569c0 0.038666-0.01534 0.075664-0.042682 0.103-0.027341 0.027342-0.064338 0.042682-0.103 0.042682h-0.29137c-0.041382 0-0.073426 0.031776-0.072843 0.072843 0 0.023618-5.231e-4 0.049811 0 0.072843 0.024613 0.99207 0.5416 1.4449 0.89773 1.625 0.074884 0.036828 0.12207 0.1126 0.12207 0.19605v0.14569c0 0.038666-0.01534 0.075663-0.042682 0.103-0.027341 0.027341-0.064338 0.042681-0.103 0.042681h-2.6223c-0.038667 0-0.075663-0.01534-0.103-0.042681-0.027342-0.027342-0.042682-0.064339-0.042682-0.10301v-0.14569c0-0.08345 0.047185-0.15922 0.12207-0.19605 0.35613-0.18015 0.87312-0.63296 0.89773-1.625 5.094e-4 -0.023032 0-0.049225 0-0.072843 5.827e-4 -0.041066-0.031461-0.072843-0.072843-0.072843h-0.29137c-0.038666 0-0.075663-0.015339-0.103-0.042681-0.027342-0.027341-0.042682-0.064338-0.042682-0.103v-0.14569c0-0.038666 0.01534-0.075663 0.042682-0.103 0.027341-0.027342 0.064338-0.042681 0.103-0.042681h0.43706c0.069872-3.06e-4 0.099297-0.090255 0.043393-0.13217-0.12506-0.09363-0.19403-0.18276-0.22621-0.26591-0.032178-0.083142-0.030552-0.16284-0.0031323-0.25011 0.054856-0.17455 0.22419-0.37045 0.41785-0.56781 0.025486-0.025385 0.028629-0.065572 0.0074-0.094611-0.025756-0.044105-0.027184-0.09814-0.00242-0.14313 0.025612-0.046517 0.074231-0.075262 0.12733-0.075262z"/>
</svg>
