<svg version="1.1" viewBox="0 0 5.6444 5.6444" xmlns="http://www.w3.org/2000/svg">
 <path d="m2.8222 0.56444c-0.10595 0-0.20385 0.057852-0.25495 0.15067-0.041483 0.075344-0.046344 0.16425-0.016646 0.243-0.18307 0.18849-0.35169 0.37952-0.41757 0.58915-0.035091 0.11166-0.038482 0.23081 0.00626 0.34643 0.026594 0.068716 0.0712 0.13506 0.13075 0.19975h-0.24912c-0.077249 0-0.15139 0.03074-0.20601 0.085363-0.054631 0.054623-0.085363 0.12876-0.085363 0.20601v0.14569c0 0.077249 0.030732 0.15139 0.085363 0.20601 0.054623 0.054623 0.12876 0.085363 0.20601 0.085363h0.21625c-0.023652 0.94077-0.49312 1.3317-0.81408 1.4943-0.12443 0.061193-0.20345 0.18814-0.20345 0.3268v0.14569c0 0.077249 0.030732 0.15139 0.085363 0.20601 0.054623 0.054623 0.12876 0.085363 0.20601 0.085363h2.6223c0.077249 0 0.15139-0.03074 0.20601-0.085363 0.054631-0.054623 0.085363-0.12876 0.085363-0.20601v-0.14569c0-0.13866-0.07902-0.2656-0.20345-0.3268-0.32096-0.16257-0.79042-0.55351-0.81408-1.4943h0.21625c0.077249 0 0.15139-0.03074 0.20601-0.085363 0.054632-0.054623 0.085363-0.12876 0.085363-0.20601v-0.14569c0-0.077248-0.030732-0.15139-0.085363-0.20601-0.054623-0.054623-0.12876-0.085363-0.20601-0.085363h-0.24912c0.059548-0.064687 0.10415-0.13103 0.13075-0.19975 0.044745-0.11562 0.041354-0.23477 0.0062573-0.34643-0.065879-0.20964-0.23449-0.40065-0.41757-0.58915 0.0297-0.078749 0.02484-0.16766-0.016643-0.243-0.051102-0.092814-0.149-0.15067-0.25495-0.15067z"/>
</svg>
