<svg version="1.1" viewBox="0 0 10 10" xmlns="http://www.w3.org/2000/svg">
    <path d="m5.0001 1c-0.1877 0-0.36115 0.10249-0.45168 0.26693-0.073493 0.13348-0.082103 0.29099-0.029491 0.43051-0.32433 0.33394-0.62307 0.67237-0.73978 1.0438-0.062168 0.19782-0.068176 0.40891 0.01109 0.61375 0.047115 0.12174 0.12614 0.23928 0.23164 0.35388h-0.44135c-0.13686 0-0.26821 0.05446-0.36497 0.15123-0.096788 0.096772-0.15123 0.22812-0.15123 0.36497v0.25811c0 0.13686 0.054446 0.26821 0.15123 0.36497 0.096772 0.096772 0.22812 0.15123 0.36497 0.15123h0.38312c-0.041903 1.6667-0.87363 2.3593-1.4423 2.6474-0.22044 0.10841-0.36044 0.33332-0.36044 0.57897v0.25811c0 0.13686 0.054446 0.26821 0.15123 0.36497 0.096772 0.096772 0.22812 0.15123 0.36497 0.15123h4.6458c0.13686 0 0.26821-0.05446 0.36497-0.15123 0.096788-0.096772 0.15123-0.22812 0.15123-0.36497v-0.25811c0-0.24566-0.13999-0.47056-0.36044-0.57897-0.56862-0.28801-1.4003-0.98062-1.4423-2.6474h0.38312c0.13686 0 0.26821-0.05446 0.36497-0.15123 0.096788-0.096772 0.15123-0.22812 0.15123-0.36497v-0.25811c0-0.13686-0.054446-0.26821-0.15123-0.36497-0.096772-0.096772-0.22812-0.15123-0.36497-0.15123h-0.44135c0.1055-0.1146 0.18452-0.23214 0.23164-0.35388 0.079272-0.20484 0.073264-0.41593 0.011085-0.61375-0.11671-0.37141-0.41543-0.70981-0.73978-1.0438 0.052618-0.13951 0.044008-0.29703-0.029485-0.43051-0.090534-0.16443-0.26397-0.26693-0.45168-0.26693zm0 0.25811c0.094077 0 0.18021 0.050926 0.22558 0.13334 0.043878 0.079697 0.041353 0.17543-0.00429 0.25357-0.037612 0.051445-0.032045 0.12264 0.01311 0.16762 0.3431 0.34963 0.64309 0.6967 0.74028 1.006 0.048591 0.15462 0.051468 0.29581-0.00555 0.4431-0.057 0.1473-0.17919 0.30522-0.40075 0.4711-0.099042 0.07426-0.046913 0.23185 0.076877 0.23239l0.77431 0.00177c0.068502 7e-7 0.13405 0.027175 0.18248 0.075617 0.048438 0.048438 0.075617 0.11398 0.075617 0.18248v0.25811c0 0.068502-0.027177 0.13405-0.075617 0.18248-0.048438 0.04844-0.11398 0.075617-0.18248 0.075617h-0.5162c-0.073314 0-0.13008 0.056296-0.12905 0.12905 0 0.041842-9.267e-4 0.088247 0 0.12905 0.043605 1.7576 0.95952 2.5598 1.5905 2.8789 0.13267 0.065242 0.21626 0.19948 0.21626 0.34733v0.25811c0 0.068502-0.027177 0.13405-0.075617 0.18248-0.048438 0.048438-0.11398 0.075615-0.18248 0.075615h-4.6458c-0.068504 0-0.13405-0.027177-0.18248-0.075615-0.04844-0.04844-0.075617-0.11399-0.075617-0.1825v-0.25811c0-0.14784 0.083595-0.28208 0.21626-0.34733 0.63093-0.31916 1.5469-1.1214 1.5905-2.8789 9.024e-4 -0.040804 0-0.087209 0-0.12905 0.00103-0.072754-0.055738-0.12905-0.12905-0.12905h-0.5162c-0.068502 0-0.13405-0.027175-0.18248-0.075615-0.04844-0.048438-0.075617-0.11398-0.075617-0.18248v-0.25811c0-0.068502 0.027177-0.13405 0.075617-0.18248 0.048438-0.04844 0.11398-0.075615 0.18248-0.075615h0.77431c0.12379-5.423e-4 0.17592-0.1599 0.076877-0.23416-0.22156-0.16588-0.34375-0.32378-0.40076-0.4711-0.057008-0.1473-0.054127-0.28849-0.0055493-0.4431 0.097185-0.30924 0.39718-0.6563 0.74028-1.006 0.045152-0.044973 0.05072-0.11617 0.01311-0.16762-0.04563-0.078138-0.04816-0.17387-0.00429-0.25357 0.045375-0.082411 0.13151-0.13334 0.22558-0.13334z"/>
</svg>
