<svg version="1.1" viewBox="0 0 10 10" xmlns="http://www.w3.org/2000/svg">
    <path d="m5.0001 1c-0.1877 0-0.36115 0.10249-0.45168 0.26693-0.073493 0.13348-0.082105 0.29099-0.029491 0.43051-0.32433 0.33394-0.62307 0.67237-0.73978 1.0438-0.062168 0.19782-0.068176 0.40891 0.01109 0.61375 0.047115 0.12174 0.12614 0.23928 0.23164 0.35388h-0.44135c-0.13686 0-0.26821 0.05446-0.36497 0.15123-0.096786 0.096772-0.15123 0.22812-0.15123 0.36497v0.25811c0 0.13686 0.054446 0.26821 0.15123 0.36497 0.096772 0.096772 0.22812 0.15123 0.36497 0.15123h0.38312c-0.041903 1.6667-0.87363 2.3593-1.4423 2.6474-0.22044 0.10841-0.36044 0.33332-0.36044 0.57897v0.25811c0 0.13686 0.054446 0.26821 0.15123 0.36497 0.096772 0.096772 0.22812 0.15123 0.36497 0.15123h4.6458c0.13686 0 0.26821-0.05446 0.36497-0.15123 0.096786-0.096772 0.15123-0.22812 0.15123-0.36497v-0.25811c0-0.24566-0.13999-0.47055-0.36044-0.57897-0.56862-0.28801-1.4003-0.98062-1.4423-2.6474h0.38312c0.13686 0 0.26821-0.05446 0.36497-0.15123 0.096788-0.096772 0.15123-0.22812 0.15123-0.36497v-0.25811c0-0.13686-0.054446-0.26821-0.15123-0.36497-0.096772-0.096772-0.22812-0.15123-0.36497-0.15123h-0.44135c0.1055-0.1146 0.18452-0.23214 0.23164-0.35388 0.079272-0.20484 0.073264-0.41593 0.011086-0.61375-0.11671-0.37141-0.41543-0.70981-0.73978-1.0438 0.052618-0.13951 0.044007-0.29703-0.029485-0.43051-0.090534-0.16443-0.26397-0.26693-0.45168-0.26693z"/>
</svg>
