<svg version="1.1" viewBox="0 0 5.6444 5.6444" xmlns="http://www.w3.org/2000/svg">
 <path d="m2.5309 0.56444c-0.040349 0-0.072832 0.032483-0.072832 0.072832v0.36416h-0.36416c-0.040349 0-0.072831 0.032483-0.072831 0.072831v0.58265c0 0.040349 0.032483 0.072831 0.072831 0.072831h0.36416v0.36416h-0.43699c-0.077236 0-0.15136 0.030735-0.20598 0.085349-0.05462 0.054614-0.08535 0.12874-0.08535 0.20598v0.14566c0 0.077236 0.03073 0.15136 0.08535 0.20598 0.054614 0.054614 0.12874 0.085349 0.20598 0.085349h0.21622c-0.023648 0.94062-0.49304 1.3315-0.81395 1.494-0.12441 0.061183-0.20342 0.18811-0.20342 0.32675v0.14566c0 0.077236 0.03073 0.15136 0.08535 0.20598 0.054614 0.054614 0.12874 0.085349 0.20598 0.085349h2.6219c0.077236 0 0.15136-0.030735 0.20598-0.085349 0.05462-0.054614 0.08535-0.12874 0.08535-0.20598v-0.14566c0-0.13864-0.079008-0.26556-0.20342-0.32675-0.32091-0.16254-0.7903-0.55342-0.81395-1.494h0.21622c0.077236 0 0.15136-0.030735 0.20598-0.085349 0.05462-0.054614 0.08535-0.12874 0.08535-0.20598v-0.14566c0-0.077236-0.03073-0.15136-0.08535-0.20598-0.054614-0.054614-0.12874-0.08535-0.20598-0.08535h-0.43699v-0.36416h0.36416c0.040349 0 0.072832-0.032483 0.072832-0.072831v-0.58265c0-0.040349-0.032483-0.072831-0.072832-0.072831h-0.36416v-0.36416c0-0.040349-0.032483-0.072832-0.072832-0.072832zm0.072831 0.14566h0.43699v0.36416c0 0.040349 0.032483 0.072831 0.072831 0.072831h0.36416v0.43699h-0.36416c-0.010087 0-0.019731 0.00201-0.028449 0.00569-0.026159 0.011026-0.044382 0.03688-0.044382 0.067141v0.50982c0 0.040349 0.032483 0.072832 0.072831 0.072832h0.50982c0.03866 5e-7 0.075652 0.015337 0.10299 0.042675 0.027337 0.027337 0.042675 0.064328 0.042675 0.10299v0.14566c0 0.03866-0.015338 0.075652-0.042675 0.10299-0.027336 0.027338-0.064328 0.042675-0.10299 0.042675h-0.29133c-0.041376 0-0.073414 0.031771-0.072832 0.072831 0 0.023615-5.098e-4 0.049803 0 0.072832 0.024608 0.99191 0.54152 1.4446 0.89759 1.6248 0.074872 0.036822 0.12205 0.11258 0.12205 0.19602v0.14566c0 0.03866-0.015338 0.075651-0.042675 0.10299-0.027337 0.027338-0.064328 0.042675-0.10299 0.042675h-2.6219c-0.03866 0-0.075652-0.015337-0.10299-0.042675-0.027337-0.027337-0.042675-0.064328-0.042675-0.10299v-0.14566c0-0.083437 0.047177-0.1592 0.12205-0.19602 0.35608-0.18012 0.87298-0.63286 0.89759-1.6248 5.098e-4 -0.023029 0-0.049217 0-0.072832 5.827e-4 -0.04106-0.031456-0.072831-0.072831-0.072831h-0.29133c-0.03866 0-0.075652-0.015337-0.10299-0.042675-0.027337-0.027336-0.042675-0.064328-0.042675-0.10299v-0.14566c0-0.03866 0.015338-0.075652 0.042675-0.10299 0.027337-0.027338 0.064328-0.042674 0.10299-0.042675h0.50982c0.040349 0 0.072831-0.032483 0.072831-0.072832v-0.50982c0-0.040349-0.033266-0.080745-0.072831-0.072831h-0.36416v-0.43699h0.36416c0.010087 0 0.019731-0.00201 0.028449-0.00569 0.026159-0.011027 0.044382-0.03688 0.044382-0.067142z"/>
</svg>
