<svg version="1.1" viewBox="0 0 10 10" xmlns="http://www.w3.org/2000/svg">
    <path d="m4.4839 1c-0.071485 0-0.12903 0.057549-0.12903 0.12903v0.64517h-0.64517c-0.071485 0-0.12903 0.057549-0.12903 0.12903v1.0323c0 0.071485 0.057549 0.12903 0.12903 0.12903h0.64517v0.64517h-0.7742c-0.13684 0-0.26816 0.054452-0.36493 0.15121-0.096769 0.096758-0.15121 0.22808-0.15121 0.36493v0.25806c0 0.13684 0.054443 0.26816 0.15121 0.36493 0.096758 0.096758 0.22808 0.15121 0.36493 0.15121h0.38307c-0.041896 1.6665-0.8735 2.359-1.442 2.6469-0.22041 0.1084-0.36039 0.33327-0.36039 0.57889v0.25806c0 0.13684 0.054443 0.26816 0.15121 0.36493 0.096758 0.096758 0.22808 0.15121 0.36493 0.15121h4.6451c0.13684 0 0.26816-0.054452 0.36493-0.15121 0.096768-0.096758 0.15121-0.22808 0.15121-0.36493v-0.25806c0-0.24562-0.13998-0.47048-0.36039-0.57889-0.56855-0.28797-1.4001-0.98048-1.442-2.6469h0.38307c0.13684 0 0.26816-0.054452 0.36493-0.15121 0.096768-0.096758 0.15121-0.22808 0.15121-0.36493v-0.25806c0-0.13684-0.054443-0.26816-0.15121-0.36493-0.096758-0.096758-0.22808-0.15121-0.36493-0.15121h-0.7742v-0.64517h0.64517c0.071485 0 0.12903-0.057549 0.12903-0.12903v-1.0323c0-0.071485-0.057549-0.12903-0.12903-0.12903h-0.64517v-0.64517c0-0.071485-0.057549-0.12903-0.12903-0.12903zm0.12903 0.25806h0.7742v0.64517c0 0.071485 0.057549 0.12903 0.12903 0.12903h0.64517v0.7742h-0.64517c-0.017871 0-0.034957 0.00356-0.050402 0.010081-0.046345 0.019534-0.07863 0.065339-0.07863 0.11895v0.90323c0 0.071485 0.057549 0.12903 0.12903 0.12903h0.90323c0.068493 9e-7 0.13403 0.027172 0.18246 0.075606 0.048432 0.048432 0.075606 0.11397 0.075606 0.18246v0.25806c0 0.068493-0.027174 0.13403-0.075606 0.18246-0.04843 0.048434-0.11397 0.075606-0.18246 0.075606h-0.51614c-0.073304 0-0.13007 0.056288-0.12903 0.12903 0 0.041838-9.032e-4 0.088234 0 0.12903 0.043597 1.7573 0.95939 2.5593 1.5902 2.8786 0.13265 0.065236 0.21623 0.19945 0.21623 0.34728v0.25806c0 0.068493-0.027174 0.13403-0.075606 0.18246-0.048432 0.048434-0.11397 0.075606-0.18246 0.075606h-4.6451c-0.068493 0-0.13403-0.027172-0.18246-0.075606-0.048432-0.048432-0.075606-0.11397-0.075606-0.18246v-0.25806c0-0.14782 0.083582-0.28205 0.21623-0.34728 0.63086-0.31911 1.5466-1.1212 1.5902-2.8786 9.033e-4 -0.0408 0-0.087196 0-0.12903 0.00103-0.072745-0.055729-0.12903-0.12903-0.12903h-0.51614c-0.068493 0-0.13403-0.027172-0.18246-0.075606-0.048432-0.048431-0.075606-0.11397-0.075606-0.18246v-0.25806c0-0.068493 0.027174-0.13403 0.075606-0.18246 0.048432-0.048434 0.11397-0.075604 0.18246-0.075606h0.90323c0.071485 0 0.12903-0.057549 0.12903-0.12903v-0.90323c0-0.071485-0.058936-0.14305-0.12903-0.12903h-0.64517v-0.7742h0.64517c0.017871 0 0.034957-0.00356 0.050402-0.010081 0.046345-0.019536 0.07863-0.065339 0.07863-0.11895z"/>
</svg>
