<svg version="1.1" viewBox="0 0 5.6444 5.6444" xmlns="http://www.w3.org/2000/svg">
 <path d="m2.5309 0.56444c-0.040349 0-0.072832 0.032483-0.072832 0.072832v0.36416h-0.36416c-0.040349 0-0.072831 0.032483-0.072831 0.072831v0.58265c0 0.040349 0.032483 0.072831 0.072831 0.072831h0.36416v0.36416h-0.43699c-0.077236 0-0.15136 0.030735-0.20598 0.085349-0.05462 0.054614-0.08535 0.12874-0.08535 0.20598v0.14566c0 0.077236 0.03073 0.15136 0.08535 0.20598 0.054614 0.054614 0.12874 0.085349 0.20598 0.085349h0.21622c-0.023648 0.94062-0.49304 1.3315-0.81395 1.494-0.12441 0.061183-0.20342 0.18811-0.20342 0.32675v0.14566c0 0.077236 0.03073 0.15136 0.08535 0.20598 0.054614 0.054614 0.12874 0.085349 0.20598 0.085349h2.6219c0.077236 0 0.15136-0.030735 0.20598-0.085349 0.05462-0.054614 0.08535-0.12874 0.08535-0.20598v-0.14566c0-0.13864-0.079008-0.26556-0.20342-0.32675-0.32091-0.16254-0.7903-0.55342-0.81395-1.494h0.21622c0.077236 0 0.15136-0.030735 0.20598-0.085349 0.05462-0.054614 0.08535-0.12874 0.08535-0.20598v-0.14566c0-0.077236-0.03073-0.15136-0.08535-0.20598-0.054614-0.054614-0.12874-0.08535-0.20598-0.08535h-0.43699v-0.36416h0.36416c0.040349 0 0.072832-0.032483 0.072832-0.072831v-0.58265c0-0.040349-0.032483-0.072831-0.072832-0.072831h-0.36416v-0.36416c0-0.040349-0.032483-0.072832-0.072832-0.072832z"/>
</svg>
