<svg version="1.1" viewBox="0 0 10 10" xmlns="http://www.w3.org/2000/svg">
 <path d="m4.4839 1c-0.071485 0-0.12903 0.057549-0.12903 0.12903v0.64517h-0.64517c-0.071485 0-0.12903 0.057549-0.12903 0.12903v1.0323c0 0.071485 0.057549 0.12903 0.12903 0.12903h0.64517v0.64517h-0.7742c-0.13684 0-0.26816 0.054452-0.36493 0.15121-0.096769 0.096758-0.15121 0.22808-0.15121 0.36493v0.25806c0 0.13684 0.054443 0.26816 0.15121 0.36493 0.096758 0.096758 0.22808 0.15121 0.36493 0.15121h0.38307c-0.041896 1.6665-0.8735 2.359-1.442 2.6469-0.22041 0.1084-0.36039 0.33327-0.36039 0.57889v0.25806c0 0.13684 0.054443 0.26816 0.15121 0.36493 0.096758 0.096758 0.22808 0.15121 0.36493 0.15121h4.6451c0.13684 0 0.26816-0.054452 0.36493-0.15121 0.096768-0.096758 0.15121-0.22808 0.15121-0.36493v-0.25806c0-0.24562-0.13998-0.47048-0.36039-0.57889-0.56855-0.28797-1.4001-0.98048-1.442-2.6469h0.38307c0.13684 0 0.26816-0.054452 0.36493-0.15121 0.096768-0.096758 0.15121-0.22808 0.15121-0.36493v-0.25806c0-0.13684-0.054443-0.26816-0.15121-0.36493-0.096758-0.096758-0.22808-0.15121-0.36493-0.15121h-0.7742v-0.64517h0.64517c0.071485 0 0.12903-0.057549 0.12903-0.12903v-1.0323c0-0.071485-0.057549-0.12903-0.12903-0.12903h-0.64517v-0.64517c0-0.071485-0.057549-0.12903-0.12903-0.12903z"/>
</svg>
