<svg version="1.1" viewBox="0 0 10 10" xmlns="http://www.w3.org/2000/svg">
    <path d="m4.871 1c-0.071485 0-0.12903 0.050354-0.12903 0.1129v0.66708c-0.69979 0.058272-1.2771 0.58578-1.3957 1.2833l-0.88684 0.55242c-0.19641 0.12324-0.29814 0.35207-0.29814 0.61014 0 0.14402 0.041294 0.28949 0.11971 0.41356 0.21074 0.33344 0.64111 0.45404 0.9942 0.2815l0.29612-0.13937c0.078299-0.032432 0.16421-0.064611 0.2674-0.00503 0.080024 0.046203 0.12903 0.13114 0.12903 0.22355-0.041898 1.6665-0.87754 2.359-1.4461 2.6469-0.22041 0.1084-0.36039 0.33327-0.36039 0.57889v0.25806c0 0.13684 0.054434 0.26816 0.15121 0.36493 0.096758 0.096758 0.22808 0.15121 0.36493 0.15121h4.6451c0.13684 0 0.26816-0.054452 0.36493-0.15121 0.096775-0.096758 0.15121-0.22808 0.15121-0.36493v-0.25806c0-0.24562-0.13998-0.47048-0.36039-0.57889-0.56854-0.28797-1.4001-0.98047-1.442-2.6469h0.38307c0.13684 0 0.26816-0.054452 0.36493-0.15121 0.096775-0.096758 0.15121-0.22808 0.15121-0.36493v-1.4194c-4e-7 -0.5475-0.2177-1.0725-0.60485-1.4597-0.38714-0.38714-0.91219-0.60485-1.4597-0.60485z"/>
</svg>
