<svg version="1.1" viewBox="0 0 5.6444 5.6444" xmlns="http://www.w3.org/2000/svg">
 <path d="m2.7494 0.56444c-0.040349 0-0.072831 0.028422-0.072831 0.063728v0.37653c-0.39499 0.032891-0.72087 0.33064-0.78778 0.72433l-0.50057 0.31181c-0.11086 0.069559-0.16828 0.19872-0.16828 0.34439 0 0.081289 0.023308 0.1634 0.067568 0.23343 0.11895 0.18821 0.36187 0.25628 0.56117 0.15889l0.16714-0.078664c0.044195-0.018306 0.092685-0.036469 0.15093-0.00284 0.045169 0.026079 0.072832 0.074018 0.072832 0.12618-0.023649 0.94062-0.49532 1.3315-0.81623 1.494-0.12441 0.061183-0.20342 0.18811-0.20342 0.32675v0.14566c0 0.077236 0.030725 0.15136 0.08535 0.20598 0.054614 0.054614 0.12874 0.085349 0.20598 0.085349h2.6219c0.077236 0 0.15136-0.030735 0.20598-0.085349 0.054624-0.054614 0.08535-0.12874 0.08535-0.20598v-0.14566c0-0.13864-0.079008-0.26556-0.20342-0.32675-0.32091-0.16254-0.7903-0.55342-0.81395-1.494h0.21622c0.077236 0 0.15136-0.030735 0.20598-0.085349 0.054624-0.054614 0.08535-0.12874 0.08535-0.20598v-0.80115c-2e-7 -0.30903-0.12288-0.60539-0.3414-0.82391-0.21852-0.21852-0.51488-0.3414-0.82391-0.3414z"/>
</svg>
