<svg version="1.1" viewBox="0 0 10 10" xmlns="http://www.w3.org/2000/svg">
 <path d="m4.871 1c-0.071485 0-0.12903 0.050354-0.12903 0.1129v0.66708c-0.69979 0.058272-1.2771 0.58578-1.3957 1.2833l-0.88684 0.55242c-0.19641 0.12324-0.29814 0.35207-0.29814 0.61014 0 0.14402 0.041294 0.28949 0.11971 0.41356 0.21074 0.33344 0.64111 0.45404 0.9942 0.2815l0.29612-0.13937c0.078299-0.032432 0.16421-0.064611 0.2674-0.00503 0.080024 0.046203 0.12903 0.13114 0.12903 0.22355-0.041898 1.6665-0.87754 2.359-1.4461 2.6469-0.22041 0.1084-0.36039 0.33327-0.36039 0.57889v0.25806c0 0.13684 0.054434 0.26816 0.15121 0.36493 0.096758 0.096758 0.22808 0.15121 0.36493 0.15121h4.6451c0.13684 0 0.26816-0.054452 0.36493-0.15121 0.096775-0.096758 0.15121-0.22808 0.15121-0.36493v-0.25806c0-0.24562-0.13998-0.47048-0.36039-0.57889-0.56854-0.28797-1.4001-0.98047-1.442-2.6469h0.38307c0.13684 0 0.26816-0.054452 0.36493-0.15121 0.096775-0.096758 0.15121-0.22808 0.15121-0.36493v-1.4194c-3e-7 -0.5475-0.2177-1.0725-0.60485-1.4597s-0.91219-0.60485-1.4597-0.60485zm0.12903 0.26437c0.43191 0.03094 0.84021 0.21446 1.1484 0.52268 0.33881 0.33881 0.52898 0.79833 0.52898 1.2775v1.4194c0 0.068493-0.027174 0.13403-0.075606 0.18246-0.048432 0.048434-0.11397 0.075606-0.18246 0.075606h-0.51614c-0.073304 0-0.13006 0.056287-0.12903 0.12903 0 0.041836-9.032e-4 0.088234 0 0.12903 0.043597 1.7573 0.95939 2.5593 1.5902 2.8786 0.13265 0.065236 0.21623 0.19945 0.21623 0.34728v0.25806c0 0.068493-0.027174 0.13403-0.075606 0.18246-0.048432 0.048434-0.11397 0.075606-0.18246 0.075606h-4.6451c-0.068493 0-0.13403-0.027172-0.18246-0.075606-0.048432-0.048432-0.075606-0.11397-0.075606-0.18246v-0.25806c0-0.14782 0.083582-0.28205 0.21623-0.34728 0.63085-0.31911 1.5466-1.1212 1.5902-2.8786 0-0.18418-0.098552-0.35499-0.25806-0.44708-0.079847-0.046021-0.16891-0.069052-0.25806-0.069052-0.083766 0-0.19306 0.03447-0.24874 0.064265l-0.2868 0.13533c-0.23864 0.12205-0.53169 0.044626-0.6749-0.18195-0.14314-0.22649-0.085396-0.55024 0.12198-0.68524l0.90978-0.56401c0.037673-0.022649 0.061227-0.062917 0.062501-0.10686 0.088449-0.63819 0.63174-1.1132 1.2775-1.1132 0.071485 0 0.12903-0.050356 0.12903-0.1129z"/>
</svg>
