<svg version="1.1" viewBox="0 0 5.6444 5.6444" xmlns="http://www.w3.org/2000/svg">
 <path d="m2.7494 0.56444c-0.040349 0-0.072831 0.028422-0.072831 0.063728v0.37653c-0.39499 0.032891-0.72087 0.33064-0.78778 0.72433l-0.50057 0.31181c-0.11086 0.069559-0.16828 0.19872-0.16828 0.34439 0 0.081289 0.023308 0.1634 0.067568 0.23343 0.11895 0.18821 0.36187 0.25628 0.56117 0.15889l0.16714-0.078664c0.044195-0.018306 0.092685-0.036469 0.15093-0.00284 0.045169 0.026079 0.072832 0.074018 0.072832 0.12618-0.023649 0.94062-0.49532 1.3315-0.81623 1.494-0.12441 0.061183-0.20342 0.18811-0.20342 0.32675v0.14566c0 0.077236 0.030725 0.15136 0.08535 0.20598 0.054614 0.054614 0.12874 0.08535 0.20598 0.08535h2.6219c0.077236 0 0.15136-0.030735 0.20598-0.08535 0.054624-0.054614 0.08535-0.12874 0.08535-0.20598v-0.14566c0-0.13864-0.079008-0.26556-0.20342-0.32675-0.32091-0.16254-0.7903-0.55342-0.81395-1.494h0.21622c0.077236 0 0.15136-0.030735 0.20598-0.085349 0.054624-0.054614 0.08535-0.12874 0.08535-0.20598v-0.80115c-2e-7 -0.30903-0.12288-0.60539-0.3414-0.82391-0.21852-0.21852-0.51488-0.3414-0.82391-0.3414zm0.072832 0.14922c0.24379 0.017464 0.47425 0.12105 0.64823 0.29502 0.19124 0.19124 0.29858 0.45061 0.29858 0.72106v0.80115c0 0.03866-0.015338 0.075652-0.042675 0.10299-0.027337 0.027338-0.064328 0.042675-0.10299 0.042675h-0.29133c-0.041376 0-0.073414 0.031771-0.072832 0.072831 0 0.023614-5.098e-4 0.049803 0 0.072832 0.024608 0.99191 0.54152 1.4446 0.89759 1.6248 0.074872 0.036822 0.12205 0.11258 0.12205 0.19602v0.14566c0 0.03866-0.015338 0.075652-0.042675 0.10299-0.027337 0.027338-0.064328 0.042675-0.10299 0.042675h-2.6219c-0.03866 0-0.075652-0.015337-0.10299-0.042675-0.027337-0.027337-0.042675-0.064328-0.042675-0.10299v-0.14566c0-0.083437 0.047177-0.1592 0.12205-0.19602 0.35608-0.18012 0.87298-0.63286 0.89759-1.6248 0-0.10396-0.055627-0.20037-0.14566-0.25235-0.045069-0.025976-0.09534-0.038976-0.14566-0.038976-0.047281 0-0.10897 0.019456-0.1404 0.036274l-0.16188 0.076387c-0.1347 0.068888-0.30011 0.025189-0.38094-0.1027-0.080792-0.12784-0.048201-0.31058 0.068848-0.38678l0.51352-0.31835c0.021264-0.012784 0.034559-0.035513 0.035278-0.060314 0.049924-0.36022 0.35658-0.62831 0.72106-0.62831 0.040349 0 0.072832-0.028423 0.072832-0.063728z"/>
</svg>
