<svg version="1.1" viewBox="0 0 10 10" xmlns="http://www.w3.org/2000/svg">
    <path d="m3.22 7.6v-0.392q0.648-0.576 1.144-1.04 0.504-0.464 0.84-0.848 0.344-0.392 0.52-0.728t0.176-0.656q0-0.44-0.272-0.72t-0.84-0.28q-0.36 0-0.672 0.184-0.304 0.176-0.552 0.432l-0.376-0.376q0.344-0.352 0.736-0.56 0.4-0.216 0.944-0.216 0.384 0 0.688 0.112 0.312 0.104 0.528 0.304 0.216 0.192 0.328 0.472 0.12 0.28 0.12 0.616 0 0.36-0.176 0.728-0.168 0.36-0.48 0.752-0.312 0.384-0.744 0.808-0.432 0.416-0.952 0.888 0.24-0.016 0.48-0.032t0.472-0.016h1.68v0.568z" />
</svg>