<svg version="1.1" viewBox="0 0 10 10" xmlns="http://www.w3.org/2000/svg">
    <path d="m5.332 7.72q-0.488 0-0.904-0.184t-0.728-0.528q-0.304-0.352-0.48-0.856-0.176-0.512-0.176-1.152 0-0.632 0.176-1.136t0.488-0.856 0.744-0.536q0.432-0.192 0.944-0.192 0.472 0 0.832 0.192 0.368 0.192 0.6 0.448l-0.376 0.424q-0.208-0.216-0.464-0.344-0.256-0.136-0.592-0.136-0.376 0-0.688 0.152-0.304 0.144-0.52 0.424-0.216 0.272-0.336 0.664t-0.12 0.88q0 0.496 0.12 0.896 0.12 0.392 0.336 0.672t0.52 0.432q0.312 0.152 0.688 0.152 0.36 0 0.64-0.152 0.288-0.152 0.544-0.432l0.376 0.408q-0.312 0.36-0.704 0.56t-0.92 0.2z"/>
</svg>
