<svg version="1.1" viewBox="0 0 10 10" xmlns="http://www.w3.org/2000/svg">
    <path d="m4.976 7.6q-0.344 0-0.624-0.064-0.272-0.056-0.496-0.152-0.216-0.096-0.4-0.216-0.176-0.128-0.32-0.264l0.328-0.432q0.128 0.112 0.272 0.224 0.144 0.104 0.312 0.184 0.176 0.08 0.384 0.128 0.216 0.048 0.472 0.048 0.272 0 0.504-0.08 0.24-0.088 0.416-0.24t0.272-0.368q0.104-0.216 0.104-0.48 0-0.528-0.344-0.824-0.336-0.296-0.912-0.296-0.32 0-0.544 0.08t-0.496 0.232l-0.352-0.224 0.168-2.456h2.888v0.568h-2.304l-0.136 1.512q0.224-0.096 0.432-0.152 0.216-0.056 0.512-0.056 0.368 0 0.688 0.096t0.552 0.296q0.24 0.192 0.376 0.496 0.136 0.296 0.136 0.712t-0.16 0.736q-0.152 0.32-0.416 0.544-0.264 0.216-0.608 0.336-0.336 0.112-0.704 0.112z"/>
</svg>
