<svg version="1.1" viewBox="0 0 10 10" xmlns="http://www.w3.org/2000/svg">
    <path d="m0.482 2.468v-0.147q0.243-0.216 0.429-0.39 0.189-0.174 0.315-0.318 0.129-0.147 0.195-0.273t0.066-0.246q0-0.165-0.102-0.27t-0.315-0.105q-0.135 0-0.252 0.069-0.114 0.066-0.207 0.162l-0.141-0.141q0.129-0.132 0.276-0.21 0.15-0.081 0.354-0.081 0.144 0 0.258 0.042 0.117 0.039 0.198 0.114 0.081 0.072 0.123 0.177 0.045 0.105 0.045 0.231 0 0.135-0.066 0.273-0.063 0.135-0.18 0.282-0.117 0.144-0.279 0.303-0.162 0.156-0.357 0.333 0.09-6e-3 0.18-0.012 0.09-6e-3 0.177-6e-3h0.63v0.213z"/>
</svg>
