<svg version="1.1" viewBox="0 0 10 10" xmlns="http://www.w3.org/2000/svg">
    <path d="m5.02 7.648q-0.432 0-0.784-0.104-0.344-0.104-0.584-0.288-0.24-0.192-0.376-0.448-0.128-0.256-0.128-0.56 0-0.264 0.096-0.472t0.248-0.376 0.344-0.288q0.2-0.128 0.408-0.224v-0.032q-0.32-0.2-0.552-0.488-0.224-0.296-0.224-0.704 0-0.296 0.112-0.536 0.12-0.24 0.328-0.408 0.216-0.176 0.504-0.272t0.632-0.096q0.376 0 0.664 0.104 0.296 0.096 0.496 0.28 0.208 0.176 0.312 0.432 0.112 0.248 0.112 0.544 0 0.36-0.232 0.68-0.224 0.312-0.544 0.536v0.032q0.208 0.104 0.392 0.224t0.32 0.272 0.208 0.36q0.08 0.2 0.08 0.472 0 0.288-0.128 0.536-0.12 0.248-0.352 0.432t-0.576 0.288q-0.336 0.104-0.776 0.104zm0.4-2.88q0.64-0.464 0.64-1.024 0-0.384-0.264-0.64-0.264-0.264-0.768-0.264-0.432 0-0.696 0.224t-0.264 0.6q0 0.232 0.104 0.4 0.104 0.16 0.288 0.288t0.424 0.232q0.248 0.096 0.536 0.184zm-0.384 2.392q0.576 0 0.88-0.248t0.304-0.648q0-0.264-0.128-0.44-0.12-0.184-0.336-0.312t-0.512-0.224q-0.288-0.104-0.624-0.216-0.376 0.208-0.624 0.472-0.248 0.256-0.248 0.64 0 0.432 0.344 0.704 0.352 0.272 0.944 0.272z"/>
</svg>
