<svg version="1.1" viewBox="0 0 10 10" xmlns="http://www.w3.org/2000/svg">
    <path d="m1.124 2.504q-0.249 0-0.417-0.081-0.168-0.084-0.273-0.189l0.126-0.162q0.096 0.09 0.228 0.159 0.135 0.069 0.321 0.069 0.099 0 0.183-0.024 0.084-0.027 0.144-0.072 0.063-0.045 0.096-0.108 0.036-0.066 0.036-0.147 0-0.084-0.039-0.153-0.036-0.072-0.12-0.123t-0.216-0.078-0.321-0.027v-0.189q0.171 0 0.288-0.027 0.12-0.027 0.195-0.075t0.108-0.114q0.036-0.066 0.036-0.141 0-0.141-0.108-0.222-0.105-0.081-0.282-0.081-0.135 0-0.255 0.054t-0.216 0.141l-0.132-0.156q0.12-0.105 0.273-0.171 0.153-0.069 0.339-0.069 0.135 0 0.249 0.033 0.117 0.033 0.201 0.096 0.087 0.06 0.135 0.15t0.048 0.207q0 0.174-0.114 0.285t-0.294 0.171v0.012q0.096 0.021 0.18 0.063 0.087 0.039 0.153 0.102 0.066 0.06 0.102 0.141 0.039 0.081 0.039 0.18 0 0.126-0.054 0.228t-0.15 0.174q-0.093 0.069-0.219 0.108-0.126 0.036-0.27 0.036z"/>
</svg>
