<svg version="1.1" viewBox="0 0 10 10" xmlns="http://www.w3.org/2000/svg">
    <path d="m8.99 9.536q-0.183 0-0.339-0.069t-0.273-0.198q-0.114-0.132-0.18-0.321-0.066-0.192-0.066-0.432 0-0.237 0.066-0.426t0.183-0.321 0.279-0.201q0.162-0.072 0.354-0.072 0.177 0 0.312 0.072 0.138 0.072 0.225 0.168l-0.141 0.159q-0.078-0.081-0.174-0.129-0.096-0.051-0.222-0.051-0.141 0-0.258 0.057-0.114 0.054-0.195 0.159-0.081 0.102-0.126 0.249t-0.045 0.33q0 0.186 0.045 0.336 0.045 0.147 0.126 0.252t0.195 0.162q0.117 0.057 0.258 0.057 0.135 0 0.24-0.057 0.108-0.057 0.204-0.162l0.141 0.153q-0.117 0.135-0.264 0.21t-0.345 0.075z"/>
</svg>
