<svg version="1.1" viewBox="0 0 10 10" xmlns="http://www.w3.org/2000/svg">
    <path d="m8.234 9.5v-1.968h0.558q0.15 0 0.273 0.027 0.126 0.027 0.213 0.084 0.09 0.057 0.138 0.15 0.051 0.09 0.051 0.219 0 0.147-0.084 0.267-0.084 0.117-0.261 0.162v0.012q0.216 0.033 0.336 0.15t0.12 0.321q0 0.144-0.054 0.252t-0.153 0.18q-0.096 0.072-0.234 0.108-0.135 0.036-0.3 0.036zm0.249-1.14h0.267q0.252 0 0.36-0.081 0.111-0.081 0.111-0.246 0-0.162-0.117-0.225-0.114-0.066-0.342-0.066h-0.279zm0 0.93h0.318q0.255 0 0.393-0.087 0.138-0.09 0.138-0.291 0-0.183-0.135-0.261-0.135-0.081-0.396-0.081h-0.318z"/>
</svg>
