<svg version="1.1" viewBox="0 0 10 10" xmlns="http://www.w3.org/2000/svg">
    <path d="m5.124 7.648q-0.416 0-0.776-0.152-0.352-0.152-0.616-0.456-0.264-0.312-0.416-0.768-0.144-0.464-0.144-1.08 0-0.768 0.176-1.304 0.176-0.544 0.472-0.88 0.296-0.344 0.68-0.496 0.392-0.16 0.808-0.16 0.472 0 0.816 0.16 0.352 0.152 0.608 0.384l-0.368 0.408q-0.2-0.184-0.464-0.288-0.264-0.112-0.552-0.112-0.304 0-0.584 0.112t-0.496 0.368q-0.208 0.256-0.344 0.68-0.128 0.416-0.136 1.032 0.312-0.304 0.688-0.48 0.376-0.184 0.76-0.184 0.352 0 0.64 0.104 0.296 0.096 0.504 0.296 0.216 0.192 0.328 0.488 0.12 0.296 0.12 0.688 0 0.368-0.144 0.672-0.136 0.296-0.368 0.512t-0.544 0.336q-0.304 0.12-0.648 0.12zm0-0.52q0.224 0 0.424-0.08t0.344-0.224q0.144-0.152 0.224-0.352 0.088-0.208 0.088-0.464 0-0.528-0.28-0.8-0.28-0.28-0.808-0.28-0.304 0-0.656 0.16-0.344 0.16-0.648 0.528 0.072 0.744 0.408 1.128 0.344 0.384 0.904 0.384z"/>
</svg>
