<svg version="1.1" viewBox="0 0 10 10" xmlns="http://www.w3.org/2000/svg">
    <path d="m3.208 7.624v-5.248h1.488q0.4 0 0.728 0.072 0.336 0.072 0.568 0.224 0.24 0.152 0.368 0.4 0.136 0.24 0.136 0.584 0 0.392-0.224 0.712-0.224 0.312-0.696 0.432v0.032q0.576 0.088 0.896 0.4t0.32 0.856q0 0.384-0.144 0.672t-0.408 0.48q-0.256 0.192-0.624 0.288-0.36 0.096-0.8 0.096zm0.664-3.04h0.712q0.672 0 0.96-0.216 0.296-0.216 0.296-0.656 0-0.432-0.312-0.6-0.304-0.176-0.912-0.176h-0.744zm0 2.48h0.848q0.68 0 1.048-0.232 0.368-0.24 0.368-0.776 0-0.488-0.36-0.696-0.36-0.216-1.056-0.216h-0.848z"/>
</svg>
