<svg version="1.1" viewBox="0 0 10 10" xmlns="http://www.w3.org/2000/svg">
    <path d="m4.996 7.648q-0.664 0-1.112-0.216-0.448-0.224-0.728-0.504l0.336-0.432q0.256 0.24 0.608 0.424 0.36 0.184 0.856 0.184 0.264 0 0.488-0.064 0.224-0.072 0.384-0.192 0.168-0.12 0.256-0.288 0.096-0.176 0.096-0.392 0-0.224-0.104-0.408-0.096-0.192-0.32-0.328t-0.576-0.208-0.856-0.072v-0.504q0.456 0 0.768-0.072 0.32-0.072 0.52-0.2t0.288-0.304q0.096-0.176 0.096-0.376 0-0.376-0.288-0.592-0.28-0.216-0.752-0.216-0.36 0-0.68 0.144t-0.576 0.376l-0.352-0.416q0.32-0.28 0.728-0.456 0.408-0.184 0.904-0.184 0.36 0 0.664 0.088 0.312 0.088 0.536 0.256 0.232 0.16 0.36 0.4t0.128 0.552q0 0.464-0.304 0.76t-0.784 0.456v0.032q0.256 0.056 0.48 0.168 0.232 0.104 0.408 0.272 0.176 0.16 0.272 0.376 0.104 0.216 0.104 0.48 0 0.336-0.144 0.608t-0.4 0.464q-0.248 0.184-0.584 0.288-0.336 0.096-0.72 0.096z" />
</svg>