<svg version="1.1" viewBox="0 0 10 10" xmlns="http://www.w3.org/2000/svg">
    <path d="m5.352 7.72q-0.496 0-0.912-0.184t-0.72-0.528q-0.304-0.352-0.472-0.856-0.168-0.512-0.168-1.152 0-0.632 0.168-1.136 0.176-0.512 0.48-0.856 0.312-0.352 0.736-0.536 0.432-0.192 0.944-0.192 0.264 0 0.48 0.056t0.392 0.152q0.184 0.088 0.32 0.2 0.144 0.112 0.256 0.232l-0.376 0.424q-0.192-0.208-0.44-0.344t-0.632-0.136q-0.368 0-0.672 0.152-0.296 0.144-0.512 0.424-0.216 0.272-0.336 0.664-0.112 0.392-0.112 0.88 0 0.496 0.104 0.896 0.112 0.392 0.312 0.672 0.208 0.28 0.512 0.432t0.688 0.152q0.28 0 0.52-0.08 0.24-0.088 0.392-0.232v-1.368h-1.048v-0.552h1.664v2.208q-0.248 0.256-0.656 0.432-0.4 0.176-0.912 0.176z"/>
</svg>
