<svg version="1.1" viewBox="0 0 10 10" xmlns="http://www.w3.org/2000/svg">
    <path d="m8.948 9.536q-0.186 0-0.342-0.069t-0.27-0.198q-0.114-0.132-0.177-0.321-0.063-0.192-0.063-0.432 0-0.237 0.063-0.426 0.066-0.192 0.18-0.321 0.117-0.132 0.276-0.201 0.162-0.072 0.354-0.072 0.099 0 0.18 0.021t0.147 0.057q0.069 0.033 0.12 0.075 0.054 0.042 0.096 0.087l-0.141 0.159q-0.072-0.078-0.165-0.129t-0.237-0.051q-0.138 0-0.252 0.057-0.111 0.054-0.192 0.159-0.081 0.102-0.126 0.249-0.042 0.147-0.042 0.33 0 0.186 0.039 0.336 0.042 0.147 0.117 0.252 0.078 0.105 0.192 0.162t0.258 0.057q0.105 0 0.195-0.03 0.09-0.033 0.147-0.087v-0.513h-0.393v-0.207h0.624v0.828q-0.093 0.096-0.246 0.162-0.15 0.066-0.342 0.066z"/>
</svg>
