<svg version="1.1" viewBox="0 0 10 10" xmlns="http://www.w3.org/2000/svg">
 <path d="m5 1c-0.72713-2.556e-5 -1.3575 0.5071-1.5126 1.2167-0.1226 0.56075 0.078288 1.1293 0.49371 1.4929h-0.5295c-0.13684 0-0.26816 0.054452-0.36493 0.15121-0.096758 0.096758-0.15121 0.22808-0.15121 0.36493v0.25806c0 0.13684 0.054452 0.26816 0.15121 0.36493 0.096758 0.096758 0.22808 0.15121 0.36493 0.15121h0.5121c-0.041896 1.6665-0.8735 2.359-1.442 2.6469-0.22041 0.1084-0.36039 0.33327-0.36039 0.57889v0.25806c0 0.13684 0.054452 0.26816 0.15121 0.36493 0.096758 0.096758 0.22808 0.15121 0.36493 0.15121h4.6451c0.13684 0 0.26816-0.054452 0.36493-0.15121 0.096758-0.096758 0.15121-0.22808 0.15121-0.36493v-0.25806c0-0.24562-0.13998-0.47048-0.36039-0.57889-0.56855-0.28797-1.4001-0.98048-1.442-2.6469h0.5121c0.13684 0 0.26816-0.054452 0.36493-0.15121 0.096758-0.096758 0.15121-0.22808 0.15121-0.36493v-0.25806c0-0.13684-0.054452-0.26816-0.15121-0.36493-0.096758-0.096758-0.22808-0.15121-0.36493-0.15121h-0.5295c0.41542-0.36365 0.61629-0.9322 0.49371-1.4929-0.15515-0.70964-0.78549-1.2168-1.5126-1.2167zm0 0.25781c0.60729-2.13e-5 1.131 0.42118 1.2606 1.0139 0.12958 0.59269-0.17078 1.1939-0.72279 1.4468-0.13935 0.059819-0.076042 0.24628 0.045112 0.24825l-2.519e-4 0.00101h0.96572c0.068493 9e-7 0.13403 0.027172 0.18246 0.075606 0.048432 0.048432 0.075606 0.11397 0.075606 0.18246v0.25806c0 0.068493-0.027172 0.13403-0.075606 0.18246-0.048432 0.048432-0.11397 0.075606-0.18246 0.075606h-0.64515c-0.072743-0.00114-0.13003 0.056288-0.12903 0.12903 0 0.041838-9.548e-4 0.088233 0 0.12903 0.043656 1.7574 0.95939 2.5594 1.5902 2.8786 0.13265 0.065236 0.21623 0.19945 0.21623 0.34728v0.25806c0 0.068493-0.027174 0.13403-0.075606 0.18246-0.048432 0.048432-0.11397 0.075606-0.18246 0.075606h-4.6451c-0.068493 0-0.13403-0.027172-0.18246-0.075606-0.048432-0.048434-0.075606-0.11397-0.075606-0.18247v-0.25806c0-0.14782 0.083582-0.28205 0.21623-0.34728 0.63086-0.31911 1.5466-1.1212 1.5902-2.8786 9.549e-4 -0.040801 0-0.087196 0-0.12903 9.935e-4 -0.072745-0.05629-0.13017-0.12903-0.12903h-0.64517c-0.068493 0-0.13403-0.027172-0.18246-0.075606-0.048432-0.048432-0.075606-0.11397-0.075606-0.18246v-0.25806c0-0.068493 0.027174-0.13403 0.075606-0.18246 0.048432-0.048434 0.11397-0.075604 0.18246-0.075606h0.96572l-2.518e-4 -0.00101c0.12115-0.0019624 0.18445-0.18841 0.045112-0.24824-0.552-0.25291-0.85237-0.85414-0.72279-1.4468 0.12958-0.59269 0.6533-1.0139 1.2606-1.0139z"/>
</svg>
