<svg version="1.1" viewBox="0 0 5.6444 5.6444" xmlns="http://www.w3.org/2000/svg">
 <path d="m2.8222 0.56444c-0.41042-1.441e-5 -0.76621 0.28623-0.85378 0.68678-0.069198 0.31651 0.044189 0.63743 0.27867 0.84268h-0.29887c-0.077236 0-0.15136 0.030735-0.20598 0.085349-0.054614 0.054614-0.08535 0.12874-0.08535 0.20598v0.14566c0 0.077236 0.030735 0.15136 0.08535 0.20598 0.054614 0.054614 0.12874 0.085349 0.20598 0.085349h0.28905c-0.023648 0.94062-0.49304 1.3315-0.81395 1.494-0.12441 0.061183-0.20342 0.18811-0.20342 0.32675v0.14566c0 0.077236 0.030735 0.15136 0.085349 0.20598 0.054614 0.054614 0.12874 0.085349 0.20598 0.085349h2.6219c0.077236 0 0.15136-0.030735 0.20598-0.085349 0.054614-0.054614 0.08535-0.12874 0.08535-0.20598v-0.14566c0-0.13864-0.079008-0.26556-0.20342-0.32675-0.32091-0.16254-0.7903-0.55342-0.81395-1.494h0.28905c0.077236 0 0.15136-0.030735 0.20598-0.085349 0.054614-0.054614 0.085349-0.12874 0.085349-0.20598v-0.14566c0-0.077236-0.030735-0.15136-0.085349-0.20598-0.054614-0.054614-0.12874-0.08535-0.20598-0.08535h-0.29887c0.23448-0.20526 0.34786-0.52617 0.27867-0.84268-0.087571-0.40055-0.44336-0.68679-0.85378-0.68678zm0 0.14552c0.34278-1.207e-5 0.63839 0.23773 0.71153 0.57227 0.073139 0.33454-0.096397 0.6739-0.40797 0.81665-0.078652 0.033764-0.042921 0.13901 0.025463 0.14012l-1.422e-4 5.689e-4h0.54509c0.03866 5e-7 0.075652 0.015337 0.10299 0.042675 0.027337 0.027337 0.042675 0.064328 0.042675 0.10299v0.14566c0 0.03866-0.015337 0.075651-0.042675 0.10299-0.027337 0.027337-0.064328 0.042675-0.10299 0.042675h-0.36415c-0.041059-6.409e-4 -0.073392 0.031771-0.072832 0.072831 0 0.023615-5.389e-4 0.049802 0 0.072832 0.024641 0.99193 0.54152 1.4446 0.89759 1.6248 0.074872 0.036822 0.12205 0.11258 0.12205 0.19602v0.14566c0 0.03866-0.015338 0.075651-0.042675 0.10299-0.027337 0.027337-0.064328 0.042675-0.10299 0.042675h-2.6219c-0.03866 0-0.075651-0.015337-0.10299-0.042675-0.027337-0.027337-0.042675-0.064328-0.042675-0.10299v-0.14566c0-0.083437 0.047177-0.1592 0.12205-0.19602 0.35608-0.18012 0.87295-0.63284 0.89759-1.6248 5.39e-4 -0.02303 0-0.049217 0-0.072832 5.608e-4 -0.04106-0.031772-0.073473-0.072831-0.072831h-0.36416c-0.03866 0-0.075652-0.015337-0.10299-0.042675-0.027337-0.027337-0.042675-0.064328-0.042675-0.10299v-0.14566c0-0.03866 0.015338-0.075652 0.042675-0.10299s0.064328-0.042674 0.10299-0.042675h0.54509l-1.421e-4 -5.679e-4c0.068383-0.0011099 0.10411-0.10635 0.025463-0.14012-0.31157-0.14275-0.48111-0.48211-0.40797-0.81665s0.36875-0.57228 0.71153-0.57227z"/>
</svg>
