<svg version="1.1" viewBox="0 0 5.6444 5.6444" xmlns="http://www.w3.org/2000/svg">
 <path d="m2.8222 0.56444c-0.41042-1.441e-5 -0.76621 0.28623-0.85378 0.68678-0.069198 0.31651 0.044189 0.63743 0.27867 0.84268h-0.29887c-0.077236 0-0.15136 0.030735-0.20598 0.085349-0.054614 0.054614-0.08535 0.12874-0.08535 0.20598v0.14566c0 0.077236 0.030735 0.15136 0.08535 0.20598 0.054614 0.054614 0.12874 0.085349 0.20598 0.085349h0.28905c-0.023648 0.94062-0.49304 1.3315-0.81395 1.494-0.12441 0.061183-0.20342 0.18811-0.20342 0.32675v0.14566c0 0.077236 0.030735 0.15136 0.085349 0.20598 0.054614 0.054614 0.12874 0.085349 0.20598 0.085349h2.6219c0.077236 0 0.15136-0.030735 0.20598-0.085349 0.054614-0.054614 0.08535-0.12874 0.08535-0.20598v-0.14566c0-0.13864-0.079008-0.26556-0.20342-0.32675-0.32091-0.16254-0.7903-0.55342-0.81395-1.494h0.28905c0.077236 0 0.15136-0.030735 0.20598-0.085349 0.054614-0.054614 0.085349-0.12874 0.085349-0.20598v-0.14566c0-0.077236-0.030735-0.15136-0.085349-0.20598-0.054614-0.054614-0.12874-0.08535-0.20598-0.08535h-0.29887c0.23448-0.20526 0.34786-0.52617 0.27867-0.84268-0.087571-0.40055-0.44336-0.68679-0.85378-0.68678z"/>
</svg>
