<svg version="1.1" viewBox="0 0 10 10" xmlns="http://www.w3.org/2000/svg">
    <path d="m5 1c-0.72713-2.556e-5 -1.3575 0.5071-1.5126 1.2167-0.1226 0.56075 0.078288 1.1293 0.49371 1.4929h-0.5295c-0.13684 0-0.26816 0.054452-0.36493 0.15121-0.096758 0.096758-0.15121 0.22808-0.15121 0.36493v0.25806c0 0.13684 0.054452 0.26816 0.15121 0.36493 0.096758 0.096758 0.22808 0.15121 0.36493 0.15121h0.5121c-0.041896 1.6665-0.8735 2.359-1.442 2.6469-0.22041 0.1084-0.36039 0.33327-0.36039 0.57889v0.25806c0 0.13684 0.054452 0.26816 0.15121 0.36493 0.096758 0.096758 0.22808 0.15121 0.36493 0.15121h4.6451c0.13684 0 0.26816-0.054452 0.36493-0.15121 0.096758-0.096758 0.15121-0.22808 0.15121-0.36493v-0.25806c0-0.24562-0.13998-0.47048-0.36039-0.57889-0.56855-0.28797-1.4001-0.98048-1.442-2.6469h0.5121c0.13684 0 0.26816-0.054452 0.36493-0.15121 0.096758-0.096758 0.15121-0.22808 0.15121-0.36493v-0.25806c0-0.13684-0.054452-0.26816-0.15121-0.36493-0.096758-0.096758-0.22808-0.15121-0.36493-0.15121h-0.5295c0.41542-0.36365 0.61629-0.9322 0.49371-1.4929-0.15515-0.70964-0.78549-1.2168-1.5126-1.2167z"/>
</svg>
