<svg version="1.1" viewBox="0 0 5.6444 5.6444" xmlns="http://www.w3.org/2000/svg">
 <path d="m2.8193 0.5667c-0.025501 9.3726e-4 -0.048652 0.01513-0.061024 0.037411l-0.32874 0.5909-0.59175-0.32831c-0.06019-0.0333-0.1288 0.027612-0.10271 0.091184l0.46942 1.1383h-0.18364c-0.077237 0-0.15136 0.030735-0.20597 0.085351-0.054623 0.054614-0.085351 0.12874-0.085351 0.20597v0.14566c0 0.077237 0.030727 0.15136 0.085351 0.20597 0.054614 0.054614 0.12874 0.085351 0.20597 0.085351h0.21622c-0.023648 0.94061-0.49304 1.3315-0.81396 1.4941-0.12441 0.061182-0.20342 0.18811-0.20342 0.32674v0.14566c0 0.077237 0.030727 0.15136 0.08535 0.20597 0.054614 0.054614 0.12874 0.085351 0.20597 0.085351h2.6219c0.077237 0 0.15136-0.030735 0.20597-0.085351 0.054622-0.054614 0.08535-0.12874 0.08535-0.20597v-0.14566c0-0.13864-0.079007-0.26556-0.20342-0.32674-0.32091-0.16254-0.79029-0.55341-0.81396-1.4941h0.21622c0.077237 0 0.15136-0.030735 0.20597-0.085351 0.054622-0.054614 0.085351-0.12874 0.085351-0.20597v-0.14566c0-0.077237-0.030727-0.15136-0.085351-0.20597-0.054614-0.054614-0.12874-0.08535-0.20597-0.08535h-0.18364l0.46942-1.1383c0.026096-0.063568-0.042514-0.12448-0.10271-0.091184l-0.59175 0.32831-0.32874-0.5909c-0.013311-0.023973-0.038994-0.038436-0.06643-0.037411z"/>
</svg>
