<svg version="1.1" viewBox="0 0 5.6444 5.6444" xmlns="http://www.w3.org/2000/svg">
 <path d="m2.8195 0.5645c-0.025501 9.3726e-4 -0.048652 0.01513-0.061024 0.037411l-0.32873 0.5909-0.59175-0.32831c-0.06019-0.0333-0.1288 0.027612-0.1027 0.091181l0.46942 1.1383h-0.18364c-0.077236 0-0.15136 0.030735-0.20597 0.085349-0.054622 0.054614-0.085349 0.12874-0.085349 0.20597v0.14566c0 0.077236 0.030727 0.15136 0.085349 0.20597 0.054614 0.054614 0.12874 0.085349 0.20597 0.085349h0.21622c-0.023648 0.94061-0.49303 1.3315-0.81394 1.494-0.12441 0.061182-0.20341 0.1881-0.20341 0.32674v0.14566c0 0.077236 0.030727 0.15136 0.085349 0.20597 0.054614 0.054614 0.12874 0.085349 0.20597 0.085349h2.6219c0.077235 0 0.15136-0.030735 0.20597-0.085349 0.054622-0.054614 0.085349-0.12874 0.085349-0.20597v-0.14566c0-0.13864-0.079007-0.26556-0.20341-0.32674-0.32091-0.16254-0.79029-0.55341-0.81394-1.494h0.21622c0.077236 0 0.15136-0.030735 0.20597-0.085349 0.054622-0.054614 0.085349-0.12874 0.085349-0.20597v-0.14566c0-0.077236-0.030726-0.15136-0.085349-0.20597-0.054614-0.054614-0.12874-0.085349-0.20597-0.085349h-0.18364l0.46942-1.1383c0.026096-0.063568-0.042514-0.12448-0.1027-0.091181l-0.59175 0.32831-0.32873-0.5909c-0.013311-0.023973-0.038994-0.038436-0.06643-0.037411zm0.0027 0.22248 0.30043 0.53997c0.019519 0.035188 0.063944 0.047871 0.099147 0.028307l0.47354-0.26259-0.43058 1.0438c-0.022431 0.048622 0.01367 0.10396 0.067283 0.10313h0.29132c0.03866 5e-7 0.075651 0.015337 0.10299 0.042674 0.027337 0.027337 0.042674 0.064328 0.042674 0.10299v0.14566c0 0.03866-0.015337 0.075651-0.042674 0.10299-0.027336 0.027338-0.064327 0.042674-0.10299 0.042674h-0.29132c-0.041375 0-0.073413 0.031771-0.072831 0.072831 0 0.023614-5.099e-4 0.049802 0 0.072831 0.024608 0.9919 0.54151 1.4446 0.89758 1.6248 0.074871 0.036822 0.12205 0.11258 0.12205 0.19602v0.14566c0 0.03866-0.015337 0.075651-0.042674 0.10299-0.027336 0.027337-0.064327 0.042674-0.10299 0.042674h-2.6219c-0.03866 0-0.075651-0.015337-0.10299-0.042674-0.027337-0.027337-0.042674-0.064328-0.042674-0.10299v-0.14566c0-0.083436 0.047177-0.1592 0.12205-0.19602 0.35607-0.18012 0.87297-0.63285 0.89758-1.6248 5.098e-4 -0.023029 0-0.049216 0-0.072831 5.827e-4 -0.04106-0.031456-0.072831-0.072831-0.072831h-0.29132c-0.03866 0-0.075651-0.015337-0.10299-0.042674-0.027337-0.027336-0.042674-0.064328-0.042674-0.10299v-0.14566c0-0.03866 0.015337-0.075651 0.042674-0.10299 0.027336-0.027338 0.064327-0.042674 0.10299-0.042674h0.2909c0.053613 8.267e-4 0.090141-0.054508 0.06771-0.10313l-0.43058-1.0438 0.47354 0.26259c0.035203 0.019564 0.079627 0.00688 0.099147-0.028307z"/>
</svg>
