<svg version="1.1" viewBox="0 0 10 10" xmlns="http://www.w3.org/2000/svg">
    <path d="m4.9952 1.0001c-0.045179 0.00166-0.086195 0.026805-0.10811 0.066279l-0.5824 1.0469-1.0484-0.58165c-0.10664-0.058996-0.22819 0.048919-0.18195 0.16154l0.83165 2.0167h-0.32535c-0.13684 0-0.26816 0.054452-0.36491 0.15121-0.096771 0.096757-0.15121 0.22808-0.15121 0.36491v0.25806c0 0.13684 0.054438 0.26816 0.15121 0.36491 0.096757 0.096757 0.22808 0.15121 0.36491 0.15121h0.38307c-0.041896 1.6664-0.87348 2.359-1.442 2.6469-0.22041 0.10839-0.36037 0.33325-0.36037 0.57887v0.25806c0 0.13684 0.054438 0.26816 0.15121 0.36491 0.096757 0.096757 0.22808 0.15121 0.36491 0.15121h4.6451c0.13683 0 0.26816-0.054452 0.36491-0.15121 0.096771-0.096757 0.15121-0.22808 0.15121-0.36491v-0.25806c0-0.24562-0.13997-0.47048-0.36037-0.57887-0.56854-0.28796-1.4001-0.98045-1.442-2.6469h0.38307c0.13684 0 0.26816-0.054452 0.36491-0.15121 0.096771-0.096757 0.15121-0.22808 0.15121-0.36491v-0.25806c0-0.13684-0.054436-0.26816-0.15121-0.36491-0.096757-0.096757-0.22808-0.15121-0.36491-0.15121h-0.32535l0.83165-2.0167c0.046233-0.11262-0.07532-0.22054-0.18195-0.16154l-1.0484 0.58165-0.5824-1.0469c-0.023582-0.042472-0.069084-0.068095-0.11769-0.066279zm0.00478 0.39416 0.53226 0.95664c0.034581 0.062341 0.11329 0.084811 0.17565 0.05015l0.83895-0.46522-0.76284 1.8493c-0.03974 0.086141 0.024218 0.18418 0.1192 0.18271h0.51612c0.068492 8e-7 0.13403 0.027172 0.18246 0.075604 0.048432 0.048432 0.075604 0.11397 0.075604 0.18246v0.25806c0 0.068492-0.027172 0.13403-0.075604 0.18246-0.04843 0.048434-0.11397 0.075604-0.18246 0.075604h-0.51612c-0.073302 0-0.13006 0.056287-0.12903 0.12903 0 0.041836-9.034e-4 0.088232 0 0.12903 0.043597 1.7573 0.95937 2.5593 1.5902 2.8786 0.13265 0.065236 0.21623 0.19945 0.21623 0.34728v0.25806c0 0.068492-0.027172 0.13403-0.075604 0.18246-0.04843 0.048432-0.11397 0.075604-0.18246 0.075604h-4.6451c-0.068492 0-0.13403-0.027172-0.18246-0.075604-0.048432-0.048432-0.075604-0.11397-0.075604-0.18246v-0.25806c0-0.14782 0.083581-0.28205 0.21623-0.34728 0.63083-0.31911 1.5466-1.1212 1.5902-2.8786 9.032e-4 -0.040799 0-0.087194 0-0.12903 0.00103-0.072744-0.055729-0.12903-0.12903-0.12903h-0.51612c-0.068492 0-0.13403-0.027172-0.18246-0.075604-0.048432-0.04843-0.075604-0.11397-0.075604-0.18246v-0.25806c0-0.068492 0.027172-0.13403 0.075604-0.18246 0.04843-0.048434 0.11397-0.075604 0.18246-0.075604h0.51537c0.094984 0.00146 0.1597-0.096569 0.11996-0.18271l-0.76284-1.8493 0.83895 0.46522c0.062368 0.034661 0.14107 0.012189 0.17565-0.05015z"/>
</svg>
