<svg version="1.1" viewBox="0 0 10 10" xmlns="http://www.w3.org/2000/svg">
 <path d="m4.9953 1.0001c-0.045178 0.00166-0.086192 0.026804-0.10811 0.066278l-0.5824 1.0468-1.0484-0.58164c-0.10663-0.058995-0.22818 0.048918-0.18196 0.16154l0.83163 2.0166h-0.32534c-0.13683 0-0.26815 0.054451-0.3649 0.15121-0.096771 0.096755-0.15121 0.22808-0.15121 0.3649v0.25805c0 0.13683 0.054436 0.26815 0.15121 0.3649 0.096755 0.096755 0.22808 0.15121 0.3649 0.15121h0.38306c-0.041895 1.6664-0.87348 2.3589-1.442 2.647-0.22041 0.10839-0.36038 0.33326-0.36038 0.57886v0.25805c0 0.13683 0.054436 0.26815 0.15121 0.3649 0.096755 0.096755 0.22808 0.15121 0.3649 0.15121h4.645c0.13683 0 0.26815-0.05445 0.3649-0.15121 0.096769-0.096755 0.15121-0.22808 0.15121-0.3649v-0.25805c0-0.24562-0.13997-0.47047-0.36038-0.57886-0.56853-0.28796-1.4001-0.98043-1.442-2.647h0.38306c0.13683 0 0.26815-0.054451 0.3649-0.15121 0.096769-0.096755 0.15121-0.22808 0.15121-0.3649v-0.25805c0-0.13683-0.054436-0.26815-0.15121-0.3649-0.096755-0.096755-0.22808-0.15121-0.3649-0.15121h-0.32534l0.83163-2.0166c0.046232-0.11262-0.075318-0.22053-0.18196-0.16154l-1.0484 0.58164-0.5824-1.0468c-0.023582-0.042471-0.069082-0.068094-0.11769-0.066278z"/>
</svg>
