<svg version="1.1" viewBox="0 0 5.6444 5.6444" xmlns="http://www.w3.org/2000/svg">
 <path d="m1.8026 0.56444c-0.040222 4.01e-6 -0.072827 0.032609-0.072831 0.072832l0.14566 1.1653c4e-6 0.040222 0.032609 0.072828 0.072832 0.072832h0.21849v0.21849h-0.21849c-0.077236 0-0.15136 0.030735-0.20598 0.085349-0.054614 0.054614-0.085349 0.12874-0.085349 0.20598v0.14566c0 0.077236 0.030735 0.15136 0.085349 0.20598 0.054614 0.054619 0.12874 0.08535 0.20598 0.08535h0.28905c-0.023648 0.94062-0.49304 1.3315-0.81395 1.494-0.12441 0.061183-0.20342 0.18811-0.20342 0.32675v0.14566c0 0.077236 0.030735 0.15136 0.085349 0.20598 0.054614 0.054619 0.12874 0.08535 0.20598 0.08535h2.6219c0.077236 0 0.15136-0.030731 0.20598-0.08535 0.054619-0.054614 0.08535-0.12874 0.08535-0.20598v-0.14566c0-0.13864-0.079008-0.26556-0.20342-0.32675-0.32091-0.16254-0.7903-0.55342-0.81395-1.494h0.28905c0.077236 0 0.15136-0.030731 0.20598-0.08535 0.054619-0.054614 0.08535-0.12874 0.08535-0.20598v-0.14566c0-0.077236-0.030731-0.15136-0.08535-0.20598-0.054614-0.054614-0.12874-0.085349-0.20598-0.085349h-0.21849v-0.21849h0.21849c0.040222-4e-6 0.072827-0.03261 0.072831-0.072832l0.14566-1.1653c-4.4e-6 -0.040222-0.03261-0.072828-0.072832-0.072832h-0.43699c-0.040222 4.01e-6 -0.072827 0.032609-0.072832 0.072832v0.29133h-0.21849v-0.29133c-4.3e-6 -0.040222-0.03261-0.072828-0.072831-0.072832h-0.43699c-0.040222 4.01e-6 -0.072828 0.032609-0.072832 0.072832v0.29133h-0.21849v-0.29133c-4e-6 -0.040222-0.032609-0.072828-0.072831-0.072832z"/>
</svg>
