<svg version="1.1" viewBox="0 0 10 10" xmlns="http://www.w3.org/2000/svg">
    <path d="m3.1936 1c-0.07126 7.1e-6 -0.12903 0.057772-0.12903 0.12903l0.25806 2.0645c7.1e-6 0.07126 0.057772 0.12903 0.12903 0.12903h0.38709v0.38709h-0.38709c-0.13684 0-0.26816 0.054452-0.36493 0.15121-0.096758 0.096758-0.15121 0.22808-0.15121 0.36493v0.25806c0 0.13684 0.054452 0.26816 0.15121 0.36493 0.096758 0.096767 0.22808 0.15121 0.36493 0.15121h0.5121c-0.041896 1.6665-0.8735 2.359-1.4421 2.6469-0.22041 0.1084-0.36039 0.33327-0.36039 0.57889v0.25806c0 0.13684 0.054452 0.26816 0.15121 0.36493 0.096758 0.096767 0.22808 0.15121 0.36493 0.15121h4.6451c0.13684 0 0.26816-0.054445 0.36493-0.15121 0.096767-0.096758 0.15121-0.22808 0.15121-0.36493v-0.25806c0-0.24562-0.13998-0.47048-0.36039-0.57889-0.56855-0.28797-1.4002-0.98048-1.4421-2.6469h0.5121c0.13684 0 0.26816-0.054445 0.36493-0.15121 0.096767-0.096758 0.15121-0.22808 0.15121-0.36493v-0.25806c0-0.13684-0.054445-0.26816-0.15121-0.36493-0.096758-0.096758-0.22808-0.15121-0.36493-0.15121h-0.38709v-0.38709h0.38709c0.07126-7.1e-6 0.12903-0.057774 0.12903-0.12903l0.25806-2.0645c-7.7e-6 -0.07126-0.057774-0.12903-0.12903-0.12903h-0.7742c-0.07126 7.1e-6 -0.12903 0.057772-0.12903 0.12903v0.51614h-0.38709v-0.51614c-7.7e-6 -0.07126-0.057774-0.12903-0.12903-0.12903h-0.7742c-0.07126 7.1e-6 -0.12903 0.057772-0.12903 0.12903v0.51614h-0.38709v-0.51614c-7.1e-6 -0.07126-0.057772-0.12903-0.12903-0.12903z"/>
</svg>
