<svg version="1.1" viewBox="0 0 10 10" xmlns="http://www.w3.org/2000/svg">
 <path d="m3.1936 1c-0.07126 7.1e-6 -0.12903 0.057772-0.12903 0.12903l0.25806 2.0645c7.1e-6 0.07126 0.057772 0.12903 0.12903 0.12903h0.38709v0.38709h-0.38709c-0.13684 0-0.26816 0.054452-0.36493 0.15121-0.096758 0.096758-0.15121 0.22808-0.15121 0.36493v0.25806c0 0.13684 0.054452 0.26816 0.15121 0.36493 0.096758 0.096767 0.22808 0.15121 0.36493 0.15121h0.5121c-0.041896 1.6665-0.8735 2.359-1.4421 2.6469-0.22041 0.1084-0.36039 0.33327-0.36039 0.57889v0.25806c0 0.13684 0.054452 0.26816 0.15121 0.36493 0.096758 0.096767 0.22808 0.15121 0.36493 0.15121h4.6451c0.13684 0 0.26816-0.054445 0.36493-0.15121 0.096767-0.096758 0.15121-0.22808 0.15121-0.36493v-0.25806c0-0.24562-0.13998-0.47048-0.36039-0.57889-0.56855-0.28797-1.4002-0.98048-1.4421-2.6469h0.5121c0.13684 0 0.26816-0.054445 0.36493-0.15121 0.096767-0.096758 0.15121-0.22808 0.15121-0.36493v-0.25806c0-0.13684-0.054445-0.26816-0.15121-0.36493-0.096758-0.096758-0.22808-0.15121-0.36493-0.15121h-0.38709v-0.38709h0.38709c0.07126-7.1e-6 0.12903-0.057774 0.12903-0.12903l0.25806-2.0645c-7.7e-6 -0.07126-0.057774-0.12903-0.12903-0.12903h-0.7742c-0.07126 7.1e-6 -0.12903 0.057772-0.12903 0.12903v0.51614h-0.38709v-0.51614c-8.2e-6 -0.07126-0.057774-0.12903-0.12903-0.12903h-0.7742c-0.07126 7.1e-6 -0.12903 0.057772-0.12903 0.12903v0.51614h-0.38709v-0.51614c-7.1e-6 -0.07126-0.057772-0.12903-0.12903-0.12903zm0.12903 0.25806h0.51614v0.51614c7.1e-6 0.07126 0.057772 0.12903 0.12903 0.12903h0.64517c0.071264 0 0.12903-0.057771 0.12903-0.12903v-0.51614h0.51614v0.51614c0 0.071264 0.057771 0.12903 0.12903 0.12903h0.64517c0.07126-7.1e-6 0.12903-0.057772 0.12903-0.12903v-0.51614h0.51614l-0.25806 1.8064h-0.38709c-0.07126 7.1e-6 -0.12903 0.057772-0.12903 0.12903v0.64517c0 0.071264 0.057771 0.12903 0.12903 0.12903h0.51614c0.068493 7e-7 0.13403 0.027172 0.18246 0.075606 0.048432 0.048432 0.075606 0.11397 0.075606 0.18246v0.25806c0 0.068493-0.027174 0.13403-0.075606 0.18246-0.048432 0.048434-0.11397 0.075606-0.18246 0.075606h-0.64517c-0.072743-0.00114-0.13003 0.056288-0.12903 0.12903 0 0.041838-9.032e-4 0.088233 0 0.12903 0.043656 1.7574 0.95939 2.5594 1.5902 2.8786 0.13265 0.065236 0.21623 0.19945 0.21623 0.34728v0.25806c0 0.068493-0.027174 0.13403-0.075606 0.18246-0.048432 0.048432-0.11397 0.075606-0.18246 0.075606h-4.6451c-0.068493 0-0.13403-0.027174-0.18246-0.075606-0.048434-0.048432-0.075606-0.11397-0.075606-0.18246v-0.25806c0-0.14782 0.083582-0.28205 0.21623-0.34728 0.63086-0.31911 1.5466-1.1212 1.5902-2.8786 9.549e-4 -0.0408 0-0.087196 0-0.12903 9.936e-4 -0.072745-0.05629-0.13017-0.12903-0.12903h-0.64517c-0.068493 0-0.13403-0.027172-0.18246-0.075606-0.048434-0.048432-0.075606-0.11397-0.075606-0.18246v-0.25806c0-0.068493 0.027172-0.13403 0.075606-0.18246 0.048432-0.048434 0.11397-0.075604 0.18246-0.075606h0.51614c0.071264 0 0.12903-0.057771 0.12903-0.12903v-0.64517c-7.1e-6 -0.07126-0.057772-0.12903-0.12903-0.12903h-0.38709z"/>
</svg>
