<svg version="1.1" viewBox="0 0 5.6444 5.6444" xmlns="http://www.w3.org/2000/svg">
 <path d="m1.8026 0.56444c-0.040222 4.01e-6 -0.072827 0.032609-0.072831 0.072832l0.14566 1.1653c4e-6 0.040222 0.032609 0.072828 0.072832 0.072832h0.21849v0.21849h-0.21849c-0.077236 0-0.15136 0.030735-0.20598 0.085349-0.054614 0.054614-0.085349 0.12874-0.085349 0.20598v0.14566c0 0.077236 0.030735 0.15136 0.085349 0.20598 0.054614 0.054619 0.12874 0.08535 0.20598 0.08535h0.28905c-0.023648 0.94062-0.49304 1.3315-0.81395 1.494-0.12441 0.061183-0.20342 0.18811-0.20342 0.32675v0.14566c0 0.077236 0.030735 0.15136 0.085349 0.20598 0.054614 0.054619 0.12874 0.08535 0.20598 0.08535h2.6219c0.077236 0 0.15136-0.030731 0.20598-0.08535 0.054619-0.054614 0.08535-0.12874 0.08535-0.20598v-0.14566c0-0.13864-0.079008-0.26556-0.20342-0.32675-0.32091-0.16254-0.7903-0.55342-0.81395-1.494h0.28905c0.077236 0 0.15136-0.030731 0.20598-0.08535 0.054619-0.054614 0.08535-0.12874 0.08535-0.20598v-0.14566c0-0.077236-0.030731-0.15136-0.08535-0.20598-0.054614-0.054614-0.12874-0.085349-0.20598-0.085349h-0.21849v-0.21849h0.21849c0.040222-4e-6 0.072827-0.03261 0.072831-0.072832l0.14566-1.1653c-4.4e-6 -0.040222-0.03261-0.072828-0.072832-0.072832h-0.43699c-0.040222 4.01e-6 -0.072827 0.032609-0.072832 0.072832v0.29133h-0.21849v-0.29133c-4.6e-6 -0.040222-0.03261-0.072828-0.072831-0.072832h-0.43699c-0.040222 4.01e-6 -0.072828 0.032609-0.072832 0.072832v0.29133h-0.21849v-0.29133c-4e-6 -0.040222-0.032609-0.072828-0.072831-0.072832zm0.072832 0.14566h0.29133v0.29133c4e-6 0.040222 0.032609 0.072827 0.072832 0.072831h0.36416c0.040224 0 0.072831-0.032608 0.072831-0.072831v-0.29133h0.29133v0.29133c0 0.040224 0.032608 0.072831 0.072831 0.072831h0.36416c0.040222-4e-6 0.072827-0.032609 0.072831-0.072831v-0.29133h0.29133l-0.14566 1.0196h-0.21849c-0.040222 4e-6 -0.072827 0.032609-0.072832 0.072832v0.36416c0 0.040224 0.032608 0.072832 0.072832 0.072832h0.29133c0.03866 4e-7 0.075651 0.015337 0.10299 0.042675 0.027337 0.027337 0.042675 0.064328 0.042675 0.10299v0.14566c0 0.03866-0.015338 0.075652-0.042675 0.10299s-0.064328 0.042675-0.10299 0.042675h-0.36416c-0.041059-6.409e-4 -0.073392 0.031771-0.072832 0.072831 0 0.023615-5.098e-4 0.049802 0 0.072832 0.024641 0.99193 0.54152 1.4446 0.89759 1.6248 0.074872 0.036822 0.12205 0.11258 0.12205 0.19602v0.14566c0 0.03866-0.015338 0.075651-0.042675 0.10299-0.027337 0.027337-0.064328 0.042675-0.10299 0.042675h-2.6219c-0.03866 0-0.075652-0.015338-0.10299-0.042675s-0.042675-0.064328-0.042675-0.10299v-0.14566c0-0.083437 0.047177-0.1592 0.12205-0.19602 0.35608-0.18012 0.87295-0.63284 0.89759-1.6248 5.39e-4 -0.023029 0-0.049217 0-0.072832 5.608e-4 -0.04106-0.031772-0.073473-0.072831-0.072831h-0.36416c-0.03866 0-0.075651-0.015337-0.10299-0.042675-0.027338-0.027337-0.042675-0.064328-0.042675-0.10299v-0.14566c0-0.03866 0.015337-0.075652 0.042675-0.10299 0.027337-0.027338 0.064328-0.042674 0.10299-0.042675h0.29133c0.040224 0 0.072831-0.032608 0.072831-0.072832v-0.36416c-4e-6 -0.040222-0.032609-0.072828-0.072831-0.072832h-0.21849z"/>
</svg>
